<svg width="33" height="32" viewBox="0 0 33 32" fill="none" xmlns="http://www.w3.org/2000/svg">
<circle cx="16.0267" cy="15.9841" r="14.9583" fill="#252525"/>
<g filter="url(#filter0_i_105_1625)">
<path d="M31.9169 17.7675C31.0249 25.7743 24.2343 32 15.9895 32C7.74133 32 0.948406 25.7685 0.0609568 17.7569C0.0201347 17.3884 0.314666 17.0739 0.685448 17.074L31.2929 17.0842C31.6636 17.0844 31.958 17.3991 31.9169 17.7675Z" fill="#F8F8F8"/>
</g>
<path d="M15.9895 31.6798C24.0694 31.6798 30.7246 25.5786 31.5987 17.7321C31.6176 17.5622 31.4818 17.4045 31.2928 17.4044L0.685341 17.3942C0.496288 17.3941 0.36034 17.5517 0.379166 17.7217C1.24885 25.5729 7.90633 31.6798 15.9895 31.6798Z" stroke="#252525" stroke-width="0.64031"/>
<g filter="url(#filter1_i_105_1625)">
<path d="M31.9541 14.2325C31.0621 6.2257 24.2715 0 16.0267 0C7.77852 0 0.985592 6.23149 0.0981425 14.2431C0.0573204 14.6116 0.351852 14.9261 0.722634 14.926L31.3301 14.9158C31.7008 14.9156 31.9951 14.6009 31.9541 14.2325Z" fill="#FF4C41"/>
</g>
<path d="M16.0267 0.320155C24.1065 0.320155 30.7618 6.42143 31.6359 14.2679C31.6548 14.4378 31.519 14.5955 31.3299 14.5956L0.722527 14.6058C0.533474 14.6059 0.397525 14.4483 0.416351 14.2783C1.28604 6.4271 7.94352 0.320155 16.0267 0.320155Z" stroke="#252525" stroke-width="0.64031"/>
<circle cx="16.0267" cy="15.9839" r="5.87646" fill="#252525"/>
<circle cx="16.0155" cy="16" r="13.5" fill="#F8F8F8" stroke="#252525"/>
<path fill-rule="evenodd" clip-rule="evenodd" d="M19.1175 15.3784C19.1175 17.4337 17.4513 19.0998 15.3961 19.0998C13.3408 19.0998 11.6747 17.4337 11.6747 15.3784C11.6747 13.3231 13.3408 11.657 15.3961 11.657C17.4513 11.657 19.1175 13.3231 19.1175 15.3784ZM18.9107 19.8934C17.9408 20.6494 16.721 21.0998 15.3961 21.0998C12.2362 21.0998 9.67466 18.5382 9.67466 15.3784C9.67466 12.2185 12.2362 9.65698 15.3961 9.65698C18.5559 9.65698 21.1175 12.2185 21.1175 15.3784C21.1175 16.6977 20.6709 17.9128 19.9207 18.8806L22.8192 21.7791C23.0985 22.0584 23.0985 22.5112 22.8192 22.7905C22.5399 23.0698 22.0871 23.0698 21.8078 22.7905L18.9107 19.8934Z" fill="black"/>
<defs>
<filter id="filter0_i_105_1625" x="0.0571671" y="17.074" width="31.8636" height="14.926" filterUnits="userSpaceOnUse" color-interpolation-filters="sRGB">
<feFlood flood-opacity="0" result="BackgroundImageFix"/>
<feBlend mode="normal" in="SourceGraphic" in2="BackgroundImageFix" result="shape"/>
<feColorMatrix in="SourceAlpha" type="matrix" values="0 0 0 0 0 0 0 0 0 0 0 0 0 0 0 0 0 0 127 0" result="hardAlpha"/>
<feOffset dx="-4.80233" dy="-1.60078"/>
<feComposite in2="hardAlpha" operator="arithmetic" k2="-1" k3="1"/>
<feColorMatrix type="matrix" values="0 0 0 0 0 0 0 0 0 0 0 0 0 0 0 0 0 0 0.25 0"/>
<feBlend mode="normal" in2="shape" result="effect1_innerShadow_105_1625"/>
</filter>
<filter id="filter1_i_105_1625" x="0.0943527" y="0" width="31.8636" height="14.926" filterUnits="userSpaceOnUse" color-interpolation-filters="sRGB">
<feFlood flood-opacity="0" result="BackgroundImageFix"/>
<feBlend mode="normal" in="SourceGraphic" in2="BackgroundImageFix" result="shape"/>
<feColorMatrix in="SourceAlpha" type="matrix" values="0 0 0 0 0 0 0 0 0 0 0 0 0 0 0 0 0 0 127 0" result="hardAlpha"/>
<feOffset dx="-4.80233" dy="-0.800388"/>
<feComposite in2="hardAlpha" operator="arithmetic" k2="-1" k3="1"/>
<feColorMatrix type="matrix" values="0 0 0 0 0 0 0 0 0 0 0 0 0 0 0 0 0 0 0.25 0"/>
<feBlend mode="normal" in2="shape" result="effect1_innerShadow_105_1625"/>
</filter>
</defs>
</svg>
