<svg width="153" height="56" viewBox="0 0 153 56" fill="none" xmlns="http://www.w3.org/2000/svg">
<g clip-path="url(#clip0_2_230)">
<path d="M0 20.7488L6.798 32.2488L9.5172 29.6428L2.09605 18.5961L0 20.7488Z" fill="url(#paint0_linear_2_230)"/>
<path d="M101.177 11.6848L100.894 13.2144L104.123 12.138L103.726 10.2686L101.177 11.6848Z" fill="#0071B9"/>
<path d="M82.1425 1.31784L71.6622 13.3276L74.7213 12.4779L84.6917 0.0148926L82.1425 1.31784Z" fill="url(#paint1_linear_2_230)"/>
<path d="M138.283 17.7463L140.832 16.3867L140.095 22.8448L138.283 17.7463Z" fill="#1D2C5E"/>
<path d="M122.251 21.8818L124.573 22.3917L127.463 20.9754L124.913 20.0124L122.251 21.8818Z" fill="#1D2C5E"/>
<path d="M43.3939 15.0838L43.7338 22.5049L46.9629 21.2586L45.9998 13.6675L43.3939 15.0838Z" fill="url(#paint2_linear_2_230)"/>
<path d="M124.743 12.8178L122.194 14.2341L122.251 21.8818L124.857 20.5789L125.65 16.84L124.743 12.8178Z" fill="url(#paint3_linear_2_230)"/>
<path d="M124.403 22.3916L121.571 47.5442L126.103 46.6378L126.953 21.032L124.403 22.3916Z" fill="#312370"/>
<path d="M129.898 48.7339L130.012 52.1329L138.679 54.9088L141.285 53.5492L132.731 46.9211L124.12 46.1847L121.571 47.5443L129.898 48.7339Z" fill="#21386E"/>
<path d="M97.7213 42.729L99.8173 41.596L101.234 44.0886L103.216 43.0122L103.613 46.2979L116.246 48.5639L118.738 47.1477L101.347 36.5541L88.9972 38.6502L86.6179 40.9728L97.7213 42.729Z" fill="#21386E"/>
<path d="M93.6991 11.7981L91.1499 13.2143L86.6179 40.9728L89.1671 39.6132L93.5292 24.0345L93.6991 11.7981Z" fill="url(#paint4_linear_2_230)"/>
<path d="M73.5317 15.537L71.4923 16.6133L71.6623 17.2931L76.4775 14.234L74.3815 11.968L71.6623 13.3276L73.5317 15.537Z" fill="#1D2C5E"/>
<path d="M79.0267 48.3373L58.4628 38.1403L61.012 36.1576L81.576 46.9211L79.0267 48.3373Z" fill="#21386E"/>
<path d="M60.3889 10.3819L57.2731 16.2735L60.5588 15.3104L62.9381 8.96561L60.3889 10.3819Z" fill="#1D2C5E"/>
<path d="M32.0639 34.798L29.458 36.6108C29.458 36.6108 30.0245 39.5566 30.761 41.596C31.4974 43.6354 33.1969 45.2783 33.1969 45.2783C34.3299 46.3546 35.6329 47.1477 37.1624 47.6009C40.0516 48.4507 43.3373 47.8842 46.1698 46.0714C46.9062 45.6182 47.9259 44.8817 48.5491 44.2586C45.7732 45.9581 32.0639 34.798 32.0639 34.798Z" fill="url(#paint5_linear_2_230)"/>
<path d="M46.1698 21.9385L48.5491 48.394L58.4062 46.9778L61.0121 45.6182L48.8323 20.3523L46.3397 21.202L43.7338 22.505L46.1698 21.9385Z" fill="#1D2C5E"/>
<path d="M9.34722 31.1158L20.3373 55.9851L30.7609 52.6428L33.3102 50.9433L11.6699 28.2833L8.95067 29.9261L6.79797 32.2488L9.34722 31.1158Z" fill="url(#paint6_linear_2_230)"/>
<path d="M118.059 42.8423L118.229 44.0886C119.135 43.9753 120.041 43.862 120.891 43.5787C121.854 43.2388 123.894 42.3324 124.63 41.6526C124.29 41.7659 119.531 43.0122 118.059 42.8423Z" fill="#1D2C5E"/>
<path d="M81.1794 36.4975L81.576 38.4803C83.672 38.1404 85.4848 37.4039 87.2976 36.3276C88.4306 35.6478 89.6203 34.6847 90.0168 34.4015C89.7336 34.5714 81.1794 36.4975 81.1794 36.4975Z" fill="#1D2C5E"/>
<path d="M23.1976 53.6137L22.4045 51.8009L11.9809 28.5744L11.7543 28.1212L11.3011 28.3478L10.9612 28.5178L9.09174 29.4242C8.80849 28.971 8.35529 28.1779 8.07204 27.668L3.87994 20.5868L2.80359 18.7173L4.61639 17.5843C6.31589 16.508 8.24199 15.4883 10.3947 14.5819C14.5868 12.8257 18.8355 11.8627 22.7444 11.8627C24.0473 11.8627 25.2936 11.976 26.4266 12.1459C28.3527 12.3725 30.1655 12.9957 31.6384 14.0154C33.8478 15.2617 35.6039 17.1878 36.567 19.4538C37.3601 21.3232 37.53 23.5326 37.0202 25.7986L36.7369 27.1582L37.8699 26.3651C38.6064 25.7986 39.3995 25.3454 40.2492 25.0055C41.7221 24.3823 43.2517 24.0424 44.7812 24.0424C46.2541 24.0424 47.6137 24.3257 48.86 24.8922L49.6531 25.2321L49.5965 24.3257L49.2566 20.5301L49.1999 19.907L48.6334 20.0769L46.8773 20.5301L46.594 14.072L59.5102 9.93657L59.3969 14.9784L60.36 15.205L63.1925 9.82327L71.6333 17.3011L71.9732 17.641L72.3131 17.3011C73.4461 16.2247 74.8624 15.3183 76.3919 14.6952L77.0151 14.4119L76.5619 13.8454L75.0323 11.976L84.7195 0.815918L89.818 8.40702L82.0569 12.5991L80.3574 13.5055L82.3402 13.5622C86.0224 13.6188 89.3081 15.205 91.5175 17.9242L92.3106 18.9439L92.8204 19.5671L91.9707 20.4735L91.4042 21.0966L89.4781 23.1927L89.1382 23.5892L89.5347 23.9291L91.3475 25.572L92.0273 26.1951L92.1973 25.2887L92.8771 20.9833L93.047 19.8503L93.217 18.7173L94.2367 12.3159H103.867L103.924 11.8627L104.094 10.7863H112.478L114.517 23.5892L114.631 24.439L115.31 23.9291C116.16 23.306 117.067 22.8528 118.03 22.4562C119.333 21.9464 120.636 21.7198 121.995 21.7198C123.581 21.7198 125.111 22.0597 126.414 22.7961C126.471 22.7961 126.471 22.8528 126.584 22.9094L127.207 23.136L127.264 22.4562L127.434 21.04L127.49 20.5868L127.037 20.4735L125.338 20.0769L125.281 13.3922L138.254 16.2247L139.217 21.04H140.236L141.256 16.9045L152.076 19.5104L140.973 52.8773L133.099 50.3847L133.042 47.3256V46.8724L132.589 46.8157L124.714 45.6827L125.168 41.6606L125.281 40.6975L124.431 41.1507C124.035 41.3773 123.638 41.5473 123.241 41.6606C121.939 42.1704 120.636 42.397 119.333 42.397C118.936 42.397 118.596 42.397 118.2 42.3404L117.52 42.2837L117.633 42.9635L118.2 46.4758L106.7 44.4364L106.077 39.2246L105.907 37.5251L105.113 38.998L103.811 41.5473L101.375 37.0719L100.638 35.7123L100.412 37.2419L99.9017 40.6975L89.818 39.1113L90.6111 34.3527L90.781 33.2764L89.818 33.8429C88.1751 34.8059 86.249 35.599 84.0397 36.1089C83.2466 36.2788 82.4535 36.4488 81.6037 36.5054L81.1505 36.5621V46.0793L61.323 36.2788L60.5866 35.9389V45.1729L51.6925 46.4758L51.296 42.4537L51.1827 41.3773L50.3896 42.1138C49.1999 43.2468 47.897 44.1532 46.4807 44.7763C45.0078 45.3995 43.4783 45.7394 42.0054 45.7394C40.4758 45.7394 39.0596 45.3995 37.7566 44.833C35.3773 43.7 33.6212 41.6039 32.8847 38.9414C32.5448 37.6951 32.4315 36.3921 32.6015 35.0325L32.7714 33.6163L31.7517 34.636C31.0153 35.3158 30.2222 35.9956 29.3724 36.6187L29.0892 36.8453L29.2025 37.1852L32.2049 48.6285L32.7148 50.6679L30.732 51.2911L25.1237 53.1039L23.1976 53.6137ZM25.6902 22.8528C25.4069 22.8528 25.1237 22.8528 24.7838 22.9094L24.3872 22.9661L23.8207 23.0794L23.9907 23.6459L24.104 23.9858L25.6902 29.2542L25.8601 29.7641L26.0867 30.5005L26.6532 29.9907L27.0498 29.6508C28.636 28.2345 29.1458 26.8183 28.8059 25.0055C28.5793 23.9291 27.7862 23.4193 27.2764 23.1927C26.9365 22.9661 26.3133 22.8528 25.6902 22.8528ZM68.8575 23.0227L67.8378 23.9858L65.1752 26.535L64.6087 27.1015L65.3452 27.3848L68.1777 28.4611L69.0274 28.801L68.8575 27.8946C68.6309 26.705 68.5742 25.5153 68.6875 24.3823L68.8575 23.0227ZM80.4141 20.0769C79.3377 20.0769 78.2614 20.5301 77.5249 21.3799C76.3919 22.6262 76.1653 24.4956 76.9584 25.9685L77.185 26.3651L77.5249 26.9882L78.0348 26.4217L78.3747 26.0818L82.2835 21.6631L82.5668 21.3232L83.0766 20.7567L82.3968 20.4735L81.9436 20.3035C81.3771 20.1902 80.9239 20.0769 80.4141 20.0769Z" fill="#FFCB05"/>
<path d="M86.3346 26.6404L86.2213 26.7537C86.278 26.7537 86.3346 26.6971 86.3346 26.6404Z" fill="#7D7F68"/>
<path d="M89.7336 23.5813L91.6597 21.4853L90.9799 22.1651V22.1084L90.4134 22.7316L88.4873 24.771L90.3001 26.4138L90.64 24.3744L91.5464 25.1675L89.7336 23.5813Z" fill="#7D7F68"/>
<path d="M89.7336 23.5813L91.5464 25.1675L92.2262 20.8621L91.6597 21.4852L89.7336 23.5813Z" fill="#7D7F68"/>
<path d="M76.3075 28.7364C76.4775 28.9064 76.3075 28.7931 76.4775 28.9064L77.6671 28.0566C77.4972 27.9433 77.3272 27.7734 77.1573 27.6601C75.4578 26.0739 75.911 22.5616 76.9873 20.6355C74.0415 23.0148 74.2115 26.6404 76.3075 28.7364Z" fill="#C7A008"/>
<path d="M90.64 30.7192C88.6572 32.362 86.4479 33.3817 83.5021 34.1182C82.8789 34.2881 82.1991 34.4014 81.6326 34.4014C76.9307 34.8546 73.0218 32.7019 71.5489 29.2463C71.379 28.8497 71.209 28.3965 71.0957 27.9433C70.4159 24.9975 70.9824 22.3916 72.4553 20.2956C72.6253 20.069 72.7386 19.899 72.9085 19.7291C72.8519 19.7857 72.7386 19.8424 72.6819 19.899C72.1154 20.4089 71.6056 20.9187 71.209 21.5419C69.7361 23.5813 69.1696 26.2438 69.8494 29.1896C69.9627 29.6428 70.076 30.096 70.3026 30.4926C71.7755 34.0049 75.741 36.1576 80.3863 35.7044C81.0095 35.6477 81.6326 35.5344 82.3124 35.3645C85.2582 34.628 87.5242 33.6083 89.4503 31.9655C89.9035 31.5689 90.4134 31.1157 90.8666 30.6625L90.8099 30.6059C90.6966 30.6625 90.64 30.6625 90.64 30.7192Z" fill="#C7A008"/>
<path d="M57.613 21.8252L62.8248 14.4607L62.5982 14.2907L57.5564 21.372L57.613 21.8252Z" fill="#C7A008"/>
<path d="M92.2262 20.8621L91.5464 25.1675L90.64 24.3744L90.3001 26.4138L88.4873 24.7709L90.4134 22.7315L90.9799 22.1084V22.165L91.6597 21.4852L92.2262 20.8621Z" fill="#C7A008"/>
<path d="M85.7681 8.739L87.5809 7.9459L84.2386 3.6405L83.1622 5.2267L85.7681 8.739Z" fill="#C7A008"/>
<path d="M35.0097 19.3892C26.5122 9.07889 11.2734 14.6306 5.83496 19.4458L6.06156 19.8424C7.30786 19.1059 8.66746 18.4828 10.0271 17.8596C15.4655 15.537 20.6773 14.8572 24.8127 15.5936C26.2856 15.7636 27.8152 16.2168 29.1748 17.1232C31.0442 18.1995 32.4605 19.6724 33.3102 21.5985C34.7831 24.9975 33.4802 29.5295 30.0245 33.2684C34.3866 29.2463 37.389 25.3941 35.0097 19.3892Z" fill="#C7A008"/>
<path d="M52.2879 31.399C52.2313 31.2291 52.2313 31.0025 52.1746 30.8325C51.7214 29.133 50.7017 27.7734 49.3421 26.867C47.1894 25.3941 44.1303 25.1109 41.1279 26.3572C39.5417 27.037 38.1821 28.1133 37.0491 29.3596C37.8988 28.6232 38.8619 28.0567 39.8816 27.6035C42.884 26.3005 45.9431 26.6404 48.0958 28.1133C49.4554 29.0197 50.4751 30.3793 50.9283 32.0788C50.985 32.2488 51.0416 32.4754 51.0416 32.6453C51.1549 33.3251 51.2116 33.9483 51.2116 34.6281C51.1549 36.6108 50.4185 38.5936 49.2288 40.2931C49.0589 40.5763 48.8323 40.8029 48.6057 41.0862C49.2855 40.463 49.9086 39.8399 50.4185 39.1034C51.6648 37.4039 52.3446 35.4212 52.4579 33.4384C52.4579 32.7586 52.4012 32.0788 52.2879 31.399Z" fill="#C7A008"/>
<path d="M43.9604 28.9064C43.9604 28.9064 45.2067 27.6601 45.15 27.6601C43.6205 27.6035 42.9407 29.0764 42.884 29.1897C43.2239 29.0197 43.5638 28.9631 43.9604 28.9064Z" fill="#C7A008"/>
<path d="M46.8496 30.6625C46.9062 30.8891 46.9629 31.0591 46.9629 31.2857C46.9629 31.6256 46.9062 31.9088 46.7363 32.1921C46.9629 32.0788 48.7757 31.1724 48.0959 29.3596C48.1525 29.4729 46.7929 30.6625 46.8496 30.6625Z" fill="#C7A008"/>
<path d="M39.825 31.7389C39.825 31.0025 41.1279 29.133 41.5245 28.5099C39.4851 29.8128 38.5787 31.569 38.5787 32.9286C38.5787 35.3079 40.6747 37.234 43.1673 37.234C44.357 37.234 46.5097 36.6108 47.9259 34.3448C47.1895 34.8547 45.32 35.9877 44.3003 35.9877C41.8077 35.9877 39.825 34.1182 39.825 31.7389Z" fill="#C7A008"/>
<path d="M57.3298 33.8916L57.3864 43.4654L58.916 43.5787L58.5761 32.6453L57.3298 33.8916Z" fill="#C7A008"/>
<path d="M48.6057 15.5936V16.4434L55.8569 14.2907L56.3668 23.5246L57.6131 21.8251L57.3298 12.5912L48.6057 15.5936Z" fill="#C7A008"/>
<path d="M70.4159 18.8794L63.6746 12.6479L62.8248 14.4607L68.8297 20.069L70.4159 18.8794Z" fill="#C7A008"/>
<path d="M69.3962 30.4926L61.4086 27.83L60.2756 29.0763L68.2066 32.2487C69.113 33.9482 70.4726 35.4212 72.1721 36.4409C73.8149 37.4606 75.741 38.0837 77.7238 38.2536V42.1625L78.9701 42.7856L79.3666 36.894L69.3962 30.4926Z" fill="#C7A008"/>
<path d="M82.1991 29.4163C84.1819 28.9631 85.2582 27.9434 86.2779 26.8104C85.5415 27.4335 81.9159 28.2266 81.2927 28.3966L80.1031 29.6995C80.6129 29.6995 81.5193 29.5862 82.1991 29.4163Z" fill="#C7A008"/>
<path d="M78.6302 15.8202C75.0046 16.2734 73.1352 19.3325 72.8519 19.6724C74.2115 18.5394 75.8544 17.6897 77.7238 17.2931C82.1992 16.2168 86.108 17.5764 88.544 20.5788L90.0735 19.3325C87.6376 16.3867 83.1056 14.7439 78.6302 15.8202Z" fill="#C7A008"/>
<path d="M90.7533 30.6059C91.2065 30.266 91.9429 29.8694 92.3961 29.4162L87.5809 25.1108C87.1843 25.564 86.9011 26.3005 86.4479 26.6404L90.7533 30.6059Z" fill="#C7A008"/>
<path d="M115.509 42.1625C110.467 37.9704 110.751 29.0764 113.243 26.2439L111.034 12.2513L106.162 12.8745L105.935 14.1208H109.618L111.6 26.8104C109.108 29.6429 107.918 33.4384 108.711 36.9507C109.334 39.6699 111.034 41.8226 113.413 43.0689C113.64 43.1822 113.923 43.2955 114.15 43.4088L114.206 43.5788L115.679 43.8054C115.623 43.862 115.793 42.2758 115.509 42.1625Z" fill="#C7A008"/>
<path d="M96.0784 14.2907L95.8518 15.537H101.404L103.046 24.5444L104.293 23.2981L102.99 13.7809L96.0784 14.2907Z" fill="#C7A008"/>
<path d="M105.596 31.7389L103.783 36.3842L104.236 37.6305L106.785 30.5493L105.596 31.7389Z" fill="#C7A008"/>
<path d="M100.271 28.8498L99.0242 30.0961L97.6646 38.4803L98.9676 38.9335L100.271 28.8498Z" fill="#C7A008"/>
<path d="M125.253 26.1305C125.99 26.6404 126.613 27.3202 127.066 28.1133C127.463 28.7364 127.689 29.3596 127.916 30.1527C128.539 32.7019 127.802 35.4211 126.216 37.5738C126.046 37.8004 125.876 38.027 125.706 38.197C126.33 37.6305 134.261 31.7955 126.556 24.1478C118.059 21.3719 114.83 26.867 114.546 27.2635C115.453 26.5271 116.472 25.8473 117.605 25.4507C120.438 24.3177 123.27 24.7143 125.253 26.1305Z" fill="#C7A008"/>
<path d="M121.004 26.697C121.004 26.7537 122.251 25.4507 122.251 25.4507C120.721 25.5074 119.985 26.2438 120.098 26.5837C119.985 26.697 119.928 26.867 119.871 26.9803C120.155 26.8103 120.778 26.697 121.004 26.697Z" fill="#C7A008"/>
<path d="M123.837 28.6231C123.894 28.8497 123.894 29.0197 123.894 29.2463C123.894 29.5295 123.78 29.8128 123.667 30.0394C123.894 29.9261 125.706 29.3596 125.027 27.3202C125.083 27.4335 123.78 28.6231 123.837 28.6231Z" fill="#C7A008"/>
<path d="M119.815 35.0246C121.514 35.0813 123.44 34.0615 124.8 32.1921C121.344 32.9285 117.662 27.0936 118.002 26.5271C116.699 27.4901 115.509 29.303 115.453 30.6059C115.339 32.9852 117.322 34.9113 119.815 35.0246Z" fill="#C7A008"/>
<path d="M138.906 50.1501L139.699 50.66L149.669 20.7488L142.192 19.0493L142.135 20.8054L148.14 22.1084L138.906 50.1501Z" fill="#C7A008"/>
<path d="M127.066 15.8203L127.123 17.5198L135.054 19.106L138.113 33.6084L139.359 32.3621L136.413 17.6897L127.066 15.8203Z" fill="#C7A008"/>
<path d="M133.184 32.3621L130.975 44.7118L132.221 45.1083L134.43 31.1158L133.184 32.3621Z" fill="#C7A008"/>
<path d="M30.2511 49.2437L26.5688 35.761L25.2092 36.7241L28.6649 49.5836L30.2511 49.2437Z" fill="#C7A008"/>
<path d="M29.288 29.0197C28.4383 29.9261 26.5122 31.6822 25.4358 32.362L24.756 30.266L23.3398 25.6207L22.4334 22.5049L21.527 23.6379L22.4334 26.7537L23.8496 31.3423L24.5294 33.4384C26.059 32.5886 28.2117 30.7758 29.288 29.0197Z" fill="#C7A008"/>
<path d="M81.8593 21.0321C80.6696 20.5789 79.0268 20.6922 78.1204 21.7119C77.8938 21.9385 77.4972 22.505 77.3839 22.7882C78.2337 22.1084 79.8199 21.9385 80.7829 22.335L81.8593 21.0321Z" fill="#7D7F68"/>
<path d="M28.2683 25.2242C28.155 24.5444 27.4752 23.9779 27.1353 23.8079C26.5688 23.5247 25.4925 23.468 24.756 23.638C24.8693 24.0912 25.0393 24.6577 25.0959 24.8843C25.3792 24.9409 25.889 24.9976 26.1723 25.1109C26.5122 25.2808 27.0787 25.6207 27.192 26.3572C27.3619 27.2636 27.3053 28.17 26.9087 28.8498C27.9851 27.8301 28.4949 26.6971 28.2683 25.2242Z" fill="#7D7F68"/>
<path d="M30.1089 25.1754C29.5991 22.4562 26.0301 20.9267 22.4612 22.8528L23.3676 25.9685L24.7838 30.6138L25.4636 32.7099C28.1262 31.067 30.7887 28.971 30.1089 25.1754ZM26.5966 29.4242C26.2001 28.1779 25.3503 25.4587 25.3503 25.4587C25.3503 25.4587 25.1804 24.8922 24.9538 24.2124C25.6902 24.0991 26.4267 24.1557 26.9932 24.439C27.3331 24.6089 27.8996 24.9488 28.0129 25.6853C28.3528 27.1582 27.8429 28.2912 26.5966 29.4242Z" fill="#3C5AA6"/>
<path d="M83.6998 20.87C81.7171 19.0572 78.658 19.1705 76.8452 21.1533C75.0324 23.136 75.1457 26.1951 77.1284 28.0079C77.2984 28.1779 77.4683 28.2912 77.6383 28.4045L84.0397 21.1533C83.9264 21.0966 83.8131 20.9833 83.6998 20.87ZM77.6949 25.9685C77.0718 24.8355 77.1851 23.3626 78.1481 22.3429C79.0545 21.3799 80.4141 21.0966 81.6038 21.5498L77.6949 25.9685Z" fill="#3567B0"/>
<path d="M92.2262 20.069L88.7139 23.468L92.0563 26.4704L92.2262 20.069Z" fill="#1E2D5F"/>
<path d="M125.027 27.3769C125.083 27.6035 125.083 27.8301 125.083 28.0567C125.027 29.4163 123.78 30.436 122.251 30.3793C120.721 30.3227 119.531 29.1897 119.588 27.8301C119.645 26.5838 120.778 25.5641 122.137 25.5074C121.854 25.4508 121.571 25.3941 121.288 25.3941C118.738 25.2808 116.699 27.0936 116.586 29.303C116.472 31.6823 118.398 33.665 120.891 33.7217C123.44 33.835 125.48 32.0222 125.593 29.6429C125.763 28.8498 125.48 28.0567 125.027 27.3769Z" fill="#3466AF"/>
<path d="M48.2091 30.0961C48.2091 31.4557 46.9628 32.532 45.4899 32.532C43.9604 32.532 42.7707 31.4557 42.7707 30.0961C42.7707 28.8498 43.8471 27.7734 45.2633 27.6601C44.9801 27.6035 44.6968 27.6035 44.4136 27.6035C41.8643 27.6035 39.8816 29.4729 39.8816 31.7389C39.8816 34.1182 41.8643 35.9877 44.3569 35.9877C46.9062 35.9877 48.8889 34.1182 48.8889 31.7389C48.8889 30.8892 48.6057 30.1527 48.1525 29.4729C48.1525 29.6429 48.2091 29.8695 48.2091 30.0961Z" fill="url(#paint7_linear_2_230)"/>
<path d="M140.803 16.3947L139.67 21.04L138.65 15.8848L124.714 12.8257L124.828 20.5868L126.924 21.04L126.754 22.4562C126.754 22.4562 126.697 22.4562 126.697 22.3996C124.091 21.04 120.862 20.87 117.86 22.0597C116.84 22.4562 115.877 22.9661 115.027 23.5892L112.931 10.3331H103.697L103.471 11.8627H93.7268L92.5938 18.6607L91.8007 17.641C89.4214 14.7518 86.0224 13.1656 82.2269 13.0523L90.4978 8.63363L84.7195 0.0228271L74.2959 12.0326L76.1087 14.242C74.4658 14.9218 73.0496 15.8282 71.8599 16.9612L62.9092 9.03018L59.7935 14.9784L59.9068 9.20013L45.9142 13.6755L46.3108 21.1533L48.6901 20.5301L49.03 24.3257C46.3108 23.0794 43.0251 23.136 40.0226 24.439C39.1162 24.8355 38.2665 25.2887 37.53 25.8552C38.0399 23.5326 37.9266 21.2666 37.0202 19.2272C36.0005 16.8479 34.131 14.8085 31.9217 13.5622C30.3355 12.4858 28.466 11.8627 26.4833 11.6361C21.668 10.7863 15.8331 11.6361 10.1114 14.072C8.01539 14.9784 6.03264 15.9981 4.27649 17.1311L2.06714 18.5474L3.42674 20.8134L7.61884 27.9513L8.92179 30.104L11.1878 28.971L11.5277 28.801L21.9513 52.0275L22.971 54.2369L25.2936 53.5004L30.902 51.6876L33.3946 50.8945L32.7714 48.4019L29.769 36.9586C30.6187 36.3355 31.4118 35.6557 32.1483 34.9192C31.9783 36.2788 32.0916 37.6951 32.4315 38.998C33.2246 41.7739 35.0374 43.9832 37.5867 45.1729C40.3059 46.4758 43.6482 46.4758 46.7073 45.1729C48.2369 44.4931 49.6531 43.5867 50.7861 42.397L51.1827 46.9857L61.0398 45.5128V36.6754L81.6037 46.8724V37.0719C82.4535 37.0153 83.2466 36.8453 84.0963 36.6754C86.3623 36.1089 88.2884 35.3724 90.0446 34.3527L89.1948 39.6212L100.298 41.3773L100.921 37.3552L103.811 42.7369L105.567 39.3379L106.19 44.9463L118.766 47.1556L118.086 42.9069C119.786 43.0768 121.599 42.8502 123.355 42.2271C123.751 42.0571 124.205 41.8872 124.544 41.6606L124.035 46.1926L132.419 47.3822L132.475 50.8379L141.2 53.5571L152.586 19.2838L140.803 16.3947ZM91.6308 21.4932L92.1973 20.87L91.5175 25.1754L89.7047 23.5326L91.6308 21.4932ZM84.2663 3.81838L87.3254 7.95383L78.6013 12.2592L77.9781 11.3528C77.9781 11.4095 84.2663 3.81838 84.2663 3.81838ZM26.5399 35.769L29.9956 49.1384L24.3872 50.9512L12.8306 25.1188C12.2075 25.4587 11.0178 26.0252 9.99814 26.535L5.80604 19.4538C7.44889 18.3774 9.31834 17.471 11.2444 16.6213C16.6828 14.2986 21.8946 13.6188 26.0301 14.3553C27.503 14.5252 29.0325 14.9784 30.3921 15.8848C32.2616 16.9612 33.6778 18.4341 34.5276 20.3602C36.567 25.0055 33.2246 31.6902 26.5399 35.769ZM52.429 33.3897C52.3723 35.3724 51.6359 37.3552 50.3896 39.0547C49.1999 40.6975 47.6137 42.0005 45.6876 42.8502C40.8157 44.9463 35.9438 42.8502 34.6409 38.2049C33.3946 33.7296 36.3404 28.4045 41.0423 26.3651C44.0448 25.0621 47.1039 25.402 49.2566 26.8749C50.6162 27.7813 51.6359 29.1409 52.0891 30.8404C52.1457 31.0104 52.2024 31.237 52.2024 31.4069C52.429 32.0867 52.429 32.7665 52.429 33.3897ZM78.9978 42.8502L58.5472 32.6532L58.6038 43.3601L53.3354 44.0965L52.9388 39.6778C54.5817 36.902 55.1482 33.5596 54.2984 30.5572C53.8452 28.9143 52.9955 27.4414 51.8058 26.3084L51.0694 17.3011L48.6901 17.9242L48.5768 15.6582L57.0743 13.109L57.5841 21.8331L63.8156 13.0523L69.9905 18.8873L61.4363 27.8946L69.4806 31.067C70.387 32.7665 71.7466 34.1828 73.4461 35.2591C75.089 36.2788 77.0151 36.902 78.9978 37.0719V42.8502ZM68.4043 28.0079L65.5718 26.9316L68.2343 24.3823C68.0644 25.572 68.121 26.7616 68.4043 28.0079ZM90.6111 30.7271C88.6283 32.37 86.419 33.3897 83.4732 34.1261C82.85 34.2961 82.1702 34.4094 81.6037 34.4094C76.9018 34.8626 72.9929 32.7099 71.52 29.2542C71.3501 28.8577 71.1801 28.4045 71.0668 27.9513C70.387 25.0055 70.9535 22.3996 72.4264 20.3035C72.823 19.6804 73.3328 19.1705 73.8993 18.6607C75.2589 17.4144 77.0151 16.5646 78.9978 16.0548C83.4732 14.9784 87.382 16.338 89.818 19.2838L81.3205 28.3478C81.887 28.4611 82.7934 28.2912 83.4732 28.1212C85.5126 27.6114 86.6456 26.535 87.6086 25.402L91.0076 28.4611L92.0273 29.3675C91.5741 29.8774 91.1209 30.3306 90.6111 30.7271ZM108.682 42.7936L106.813 30.5572L104.207 37.2985L100.298 28.8577H100.242L98.712 38.6581L92.1973 37.5251L93.1037 32.0867C93.3303 31.8601 93.6135 31.6335 93.8401 31.3503L95.9362 29.1976L93.8968 27.3281L96.1061 14.2986H102.678L104.32 23.306L106.19 12.8824H110.892L112.875 25.572C110.382 28.4045 109.192 32.2 109.985 35.7123C110.609 38.4315 112.308 40.5842 114.687 41.8872C114.914 42.0005 115.197 42.1138 115.424 42.2271L115.65 43.8699L108.682 42.7936ZM124.941 38.7714C124.205 39.2813 123.411 39.7345 122.562 40.0177C120.862 40.6409 119.219 40.8108 117.69 40.4709C116.67 40.2443 115.707 39.8478 114.857 39.2813C113.554 38.3182 112.591 36.9586 112.138 35.2025C111.628 33.1064 112.081 30.8404 113.214 28.8577C113.781 27.8946 114.517 26.9882 115.367 26.1951C116.33 25.3454 117.463 24.6089 118.653 24.1557C121.542 23.0794 124.374 23.4759 126.357 24.8922C127.094 25.402 127.717 26.0818 128.17 26.8749C128.51 27.4981 128.793 28.1779 128.963 28.9143C129.586 31.4636 128.85 34.1828 127.264 36.3355C126.754 37.2985 125.904 38.0916 124.941 38.7714ZM139.67 50.328L134.855 48.9118L134.458 31.1237L132.022 44.833L126.754 43.9832L127.15 40.0177C130.606 37.1286 132.419 32.5399 131.399 28.3478C130.946 26.535 130.039 24.8922 128.68 23.7025L129.133 19.0572L127.15 18.5474L127.207 16.0548L136.271 17.8676L139.33 32.3133L142.446 19.3405L149.357 20.87L139.67 50.328Z" fill="url(#paint8_linear_2_230)"/>
<path d="M146.157 48.3373H146.384C146.667 48.3373 146.893 48.224 146.893 47.9408C146.893 47.7708 146.723 47.5442 146.384 47.5442H146.157V48.3373ZM146.157 49.527H145.817V47.3743C145.987 47.3176 146.157 47.3176 146.44 47.3176C146.78 47.3176 147.007 47.3743 147.12 47.4876C147.233 47.6009 147.347 47.7142 147.347 47.9408C147.347 48.224 147.177 48.394 146.95 48.4506C147.12 48.5073 147.29 48.6772 147.29 48.9605C147.347 49.3004 147.403 49.4137 147.403 49.4703H147.063C147.007 49.4137 146.95 49.1871 146.893 48.9038C146.837 48.6206 146.724 48.5073 146.44 48.5073H146.157V49.527ZM146.554 46.7511C145.704 46.7511 145.024 47.4876 145.024 48.394C145.024 49.3004 145.704 50.0368 146.61 50.0368C147.46 50.0368 148.14 49.3004 148.14 48.394C148.083 47.4876 147.403 46.7511 146.554 46.7511ZM146.554 46.4679C147.63 46.4679 148.423 47.3176 148.423 48.394C148.423 49.4703 147.573 50.3201 146.497 50.3201C145.421 50.3201 144.571 49.4703 144.571 48.394C144.627 47.3176 145.477 46.4679 146.554 46.4679Z" fill="black"/>
</g>
<defs>
<linearGradient id="paint0_linear_2_230" x1="7.53445" y1="30.3362" x2="1.85925" y2="19.7608" gradientUnits="userSpaceOnUse">
<stop stop-color="#0070B6"/>
<stop offset="1" stop-color="#1D2C5E"/>
</linearGradient>
<linearGradient id="paint1_linear_2_230" x1="76.7466" y1="8.73106" x2="83.9496" y2="1.01307" gradientUnits="userSpaceOnUse">
<stop stop-color="#0070B6"/>
<stop offset="1" stop-color="#1D2C5E"/>
</linearGradient>
<linearGradient id="paint2_linear_2_230" x1="45.3212" y1="21.5985" x2="44.4623" y2="14.3825" gradientUnits="userSpaceOnUse">
<stop stop-color="#0070B6"/>
<stop offset="1" stop-color="#1D2C5E"/>
</linearGradient>
<linearGradient id="paint3_linear_2_230" x1="124.005" y1="20.2095" x2="123.662" y2="13.6959" gradientUnits="userSpaceOnUse">
<stop stop-color="#125D9E"/>
<stop offset="1" stop-color="#1D2C5E"/>
</linearGradient>
<linearGradient id="paint4_linear_2_230" x1="99.9652" y1="10.8209" x2="92.4058" y2="22.8465" gradientUnits="userSpaceOnUse">
<stop stop-color="#125D9E"/>
<stop offset="1" stop-color="#1D2C5E"/>
</linearGradient>
<linearGradient id="paint5_linear_2_230" x1="33.0666" y1="30.1091" x2="38.2206" y2="40.2455" gradientUnits="userSpaceOnUse">
<stop stop-color="#105FA1"/>
<stop offset="1" stop-color="#1D2C5E"/>
</linearGradient>
<linearGradient id="paint6_linear_2_230" x1="13.6192" y1="26.6495" x2="19.5844" y2="40.4777" gradientUnits="userSpaceOnUse">
<stop stop-color="#105FA1"/>
<stop offset="1" stop-color="#1D2C5E"/>
</linearGradient>
<linearGradient id="paint7_linear_2_230" x1="39.7994" y1="31.7865" x2="48.8232" y2="31.7865" gradientUnits="userSpaceOnUse">
<stop stop-color="#3C5AA6"/>
<stop offset="0.933" stop-color="#2B73B9"/>
<stop offset="1" stop-color="#2A75BB"/>
</linearGradient>
<linearGradient id="paint8_linear_2_230" x1="2.11076" y1="27.1417" x2="152.654" y2="27.1417" gradientUnits="userSpaceOnUse">
<stop stop-color="#3C5AA6"/>
<stop offset="0.933" stop-color="#2B73B9"/>
<stop offset="1" stop-color="#2A75BB"/>
</linearGradient>
<clipPath id="clip0_2_230">
<rect width="152.672" height="56" fill="white"/>
</clipPath>
</defs>
</svg>
